<svg xmlns="http://www.w3.org/2000/svg" xmlns:xlink="http://www.w3.org/1999/xlink" viewBox="0 0 103.34 103.34"><defs><style>.cls-1{isolation:isolate;}.cls-2{fill:url(#Degradado_sin_nombre_8);}.cls-3{fill:#feda6c;mix-blend-mode:multiply;}.cls-3,.cls-4{opacity:0.3;}.cls-4{fill:#fff;mix-blend-mode:overlay;}.cls-5,.cls-6,.cls-8{fill:none;stroke:#1a222f;stroke-linecap:round;}.cls-5,.cls-8{stroke-linejoin:round;}.cls-5{stroke-width:4.77px;}.cls-6{stroke-miterlimit:10;stroke-width:4.79px;}.cls-7{fill:#1a222f;}.cls-8{stroke-width:1.91px;}</style><radialGradient id="Degradado_sin_nombre_8" cx="52.32" cy="100.66" r="94.07" gradientTransform="matrix(0.24, 0.97, -0.57, 0.14, 48.72, -0.88)" gradientUnits="userSpaceOnUse"><stop offset="0" stop-color="#ffdc6a"/><stop offset="1" stop-color="#fa526b"/></radialGradient></defs><g class="cls-1"><g id="Layer_2" data-name="Layer 2"><g id="objects"><circle class="cls-2" cx="51.67" cy="51.67" r="51.67" transform="translate(-11.07 89.12) rotate(-75.84)"/><path class="cls-3" d="M97.73,28.28A59,59,0,0,1,84.29,55.79C75.29,65.79,59.78,74,46,74c-15.24,0-28.26-4.53-40-14.15a43.16,43.16,0,0,1-6-6.07A51.67,51.67,0,1,0,97.73,28.28Z"/><ellipse class="cls-4" cx="26.66" cy="23.46" rx="15.62" ry="8.37" transform="translate(-8.79 21.35) rotate(-37.94)"/><polyline class="cls-5" points="44.14 76.41 51.7 70.69 59.2 76.41"/><path class="cls-6" d="M14.54,43.7C20,52.33,33,53.46,42,52.56"/><path class="cls-7" d="M36.86,52.62A31.79,31.79,0,0,1,24.47,50.1,7.32,7.32,0,1,0,36.9,52.61Z"/><path class="cls-6" d="M88.8,43.7c-5.47,8.63-18.41,9.76-27.46,8.86"/><path class="cls-7" d="M66.47,52.62A31.75,31.75,0,0,0,78.86,50.1a7.33,7.33,0,1,1-12.42,2.51Z"/><path class="cls-8" d="M44.3,46s2.92,1.86,3.32,4.45"/><path class="cls-8" d="M57.05,47.44a6,6,0,0,0-1.66,3"/></g></g></g></svg>