<svg xmlns="http://www.w3.org/2000/svg" viewBox="0 0 103.34 103.34"><defs><style>.cls-1{isolation:isolate;}.cls-2{fill:#feda6c;}.cls-3,.cls-5,.cls-6{fill:#fa526b;}.cls-3{opacity:0.2;}.cls-3,.cls-6{mix-blend-mode:multiply;}.cls-4{fill:#1a222f;}.cls-6,.cls-8{opacity:0.3;}.cls-7{fill:none;stroke:#1a222f;stroke-linecap:round;stroke-linejoin:round;stroke-width:2.86px;}.cls-8{fill:#fff;mix-blend-mode:overlay;}</style></defs><g class="cls-1"><g id="Layer_2" data-name="Layer 2"><g id="objects"><circle class="cls-2" cx="51.67" cy="51.67" r="51.67" transform="translate(-21.4 51.67) rotate(-45)"/><path class="cls-3" d="M97.73,28.28A59,59,0,0,1,84.29,55.79C75.29,65.79,59.78,74,46,74c-15.24,0-28.26-4.53-40-14.15a43.16,43.16,0,0,1-6-6.07A51.67,51.67,0,1,0,97.73,28.28Z"/><path class="cls-4" d="M86.19,53.39A34.53,34.53,0,0,1,18.49,63a34.84,34.84,0,0,1-1.34-9.57c0-.1,0-.2,0-.31h69C86.17,53.19,86.19,53.29,86.19,53.39Z"/><path class="cls-5" d="M84.85,63a34.53,34.53,0,0,1-66.36,0,105.45,105.45,0,0,1,33.17-5.08A105.58,105.58,0,0,1,84.85,63Z"/><path class="cls-6" d="M47.71,68.91A75.19,75.19,0,0,1,78.5,75.1,34.42,34.42,0,0,0,84.85,63a105.58,105.58,0,0,0-33.19-5.08A105.45,105.45,0,0,0,18.49,63a34.47,34.47,0,0,0,5.87,11.55C32,71.05,40.05,68.91,47.71,68.91Z"/><polyline class="cls-7" points="23.86 25.6 41.44 39.66 23.86 45.73"/><line class="cls-7" x1="41.44" y1="39.66" x2="23.86" y2="35.66"/><polyline class="cls-7" points="79.45 25.6 61.88 39.66 79.45 45.73"/><line class="cls-7" x1="61.88" y1="39.66" x2="79.45" y2="35.66"/><ellipse class="cls-8" cx="26.66" cy="21.05" rx="15.62" ry="8.37" transform="translate(-7.3 20.84) rotate(-37.94)"/></g></g></g></svg>