<svg xmlns="http://www.w3.org/2000/svg" viewBox="0 0 103.34 103.34"><defs><style>.cls-1{isolation:isolate;}.cls-2{fill:#2682d5;}.cls-3,.cls-5{fill:#fff;}.cls-4{fill:#fa526b;opacity:0.2;mix-blend-mode:multiply;}.cls-5{opacity:0.3;mix-blend-mode:overlay;}</style></defs><g class="cls-1"><g id="Layer_2" data-name="Layer 2"><g id="objects"><circle class="cls-2" cx="51.67" cy="51.67" r="51.67" transform="translate(-7.45 94.61) rotate(-80.99)"/><rect class="cls-3" x="23.05" y="40.69" width="17.14" height="36.42"/><path class="cls-3" d="M73.7,40.69H59.22c6.85-15.07,1.37-19-1.2-19s-4.71,1.89-4.71,8.84-10.2,10.2-10.2,10.2V77.86h19.1A18.07,18.07,0,0,0,80.28,59.79V47.27A6.58,6.58,0,0,0,73.7,40.69Z"/><path class="cls-4" d="M97.71,28.28A59.06,59.06,0,0,1,84.26,55.79C75.27,65.79,59.75,74,46,74,30.76,74,17.74,69.51,6.05,59.89a42.63,42.63,0,0,1-6-6.07A51.66,51.66,0,1,0,97.71,28.28Z"/><ellipse class="cls-5" cx="27.74" cy="21.05" rx="15.62" ry="8.37" transform="translate(-7.08 21.5) rotate(-37.94)"/></g></g></g></svg>