<svg xmlns="http://www.w3.org/2000/svg" viewBox="0 0 103.34 103.34"><defs><style>.cls-1{isolation:isolate;}.cls-2{fill:#fa526b;}.cls-3,.cls-5{fill:#fff;}.cls-4{fill:#5990ff;opacity:0.2;mix-blend-mode:multiply;}.cls-5{opacity:0.3;mix-blend-mode:overlay;}</style></defs><g class="cls-1"><g id="Layer_2" data-name="Layer 2"><g id="objects"><circle class="cls-2" cx="51.67" cy="51.67" r="51.67" transform="translate(-10.65 89.83) rotate(-76.48)"/><path class="cls-3" d="M67.17,30.33A16,16,0,0,0,54,37.26a3.39,3.39,0,0,1-2.52,1.47,3.41,3.41,0,0,1-2.52-1.47,16,16,0,0,0-28.08,15c4.49,13.93,24.56,30.32,30.6,30.91,6-.59,26.12-17,30.61-30.91A16,16,0,0,0,67.17,30.33Z"/><path class="cls-4" d="M97.71,28.28A59.06,59.06,0,0,1,84.26,55.79C75.27,65.79,59.75,74,46,74,30.76,74,17.74,69.51,6.05,59.89a42.63,42.63,0,0,1-6-6.07A51.66,51.66,0,1,0,97.71,28.28Z"/><ellipse class="cls-5" cx="25.63" cy="21.05" rx="15.62" ry="8.37" transform="translate(-7.52 20.21) rotate(-37.94)"/></g></g></g></svg>