<svg xmlns="http://www.w3.org/2000/svg" viewBox="0 0 103.34 103.34"><defs><style>.cls-1{isolation:isolate;}.cls-2{fill:#ffdc6a;}.cls-3{fill:#fa526b;opacity:0.2;mix-blend-mode:multiply;}.cls-4{fill:#fff;opacity:0.3;mix-blend-mode:overlay;}.cls-5{fill:#1a222f;}.cls-6{fill:none;stroke:#1a222f;stroke-linecap:round;stroke-miterlimit:10;stroke-width:4.79px;}.cls-7{fill:#4582ff;}</style></defs><g class="cls-1"><g id="Layer_2" data-name="Layer 2"><g id="objects"><circle class="cls-2" cx="51.67" cy="51.67" r="51.67" transform="translate(-15.33 22.5) rotate(-21.48)"/><path class="cls-3" d="M97.71,28.28A59.06,59.06,0,0,1,84.26,55.79C75.27,65.79,59.75,74,46,74,30.76,74,17.74,69.51,6.05,59.89a42.63,42.63,0,0,1-6-6.07A51.66,51.66,0,1,0,97.71,28.28Z"/><ellipse class="cls-4" cx="27.74" cy="23.46" rx="15.62" ry="8.37" transform="translate(-8.56 22.01) rotate(-37.94)"/><ellipse class="cls-5" cx="31.72" cy="46.37" rx="8.8" ry="5.85" transform="translate(-19.51 69.41) rotate(-79.83)"/><ellipse class="cls-5" cx="71.61" cy="46.37" rx="5.85" ry="8.8" transform="translate(-7.06 13.37) rotate(-10.17)"/><path class="cls-6" d="M87.27,37.15c-3.19-9.72-15.47-14-24.46-15.31"/><path class="cls-6" d="M16.36,37.58c2.84-9.82,15-14.52,23.89-16.18"/><path class="cls-5" d="M65.2,80.21a2.2,2.2,0,0,1-2-1.24c-2.42-5-6.65-8.08-11.31-8.1h-.05c-4.69,0-9,3-11.47,8.11a2.19,2.19,0,0,1-3.93-1.92c3.25-6.62,9-10.56,15.4-10.56h.06c6.38,0,12.08,4,15.25,10.57a2.19,2.19,0,0,1-1,2.92A2.13,2.13,0,0,1,65.2,80.21Z"/><path class="cls-7" d="M87.05,63.81a1.11,1.11,0,0,0-2,.09,157.63,157.63,0,0,0-6.66,16.29c-1.12,3.35-1.31,6.43.54,9.54,1.5,2.52,4.09,4.55,7.15,4.46a9.56,9.56,0,0,0,8.82-7.85c.78-4.38-1.51-8.21-3-12.12-.82-2.14-1.85-4.23-2.82-6.3-.51-1.07-1-2.14-1.54-3.21C87.49,64.57,87.29,64.22,87.05,63.81Z"/></g></g></g></svg>