<svg xmlns="http://www.w3.org/2000/svg" viewBox="0 0 103.34 103.34"><defs><style>.cls-1{isolation:isolate;}.cls-2{fill:#ffdc6a;}.cls-3,.cls-5{fill:#fa526b;}.cls-3{opacity:0.2;mix-blend-mode:multiply;}.cls-4{fill:#fff;opacity:0.3;mix-blend-mode:overlay;}.cls-6{fill:#1a222f;}.cls-7{fill:none;stroke:#1a222f;stroke-linecap:round;stroke-miterlimit:10;stroke-width:2.48px;}</style></defs><g class="cls-1"><g id="Layer_2" data-name="Layer 2"><g id="objects"><circle class="cls-2" cx="51.67" cy="51.67" r="51.67" transform="translate(-21.4 51.67) rotate(-45)"/><path class="cls-3" d="M97.71,28.28A59.06,59.06,0,0,1,84.26,55.79C75.27,65.79,59.75,74,46,74,30.76,74,17.74,69.51,6.05,59.89a42.63,42.63,0,0,1-6-6.07A51.66,51.66,0,1,0,97.71,28.28Z"/><ellipse class="cls-4" cx="25.63" cy="23.46" rx="15.62" ry="8.37" transform="translate(-9.01 20.72) rotate(-37.94)"/><ellipse class="cls-5" cx="51.45" cy="71.52" rx="12.41" ry="18.42"/><path class="cls-6" d="M49.18,78.11A49.53,49.53,0,0,1,62.5,79.9a25.74,25.74,0,0,0,1.36-8.38c0-10.18-5.55-18.42-12.41-18.42S39,61.34,39,71.52a25.79,25.79,0,0,0,1.18,7.78A35,35,0,0,1,49.18,78.11Z"/><ellipse class="cls-6" cx="31.51" cy="37.37" rx="8.8" ry="5.85" transform="translate(-10.83 61.78) rotate(-79.83)"/><path class="cls-6" d="M65.64,38.4C66.5,43.18,69.77,46.6,73,46s5.06-4.91,4.2-9.7S73,28.13,69.84,28.7,64.79,33.61,65.64,38.4Z"/><path class="cls-7" d="M36.89,18.62a6.8,6.8,0,0,0-5.38-3c-3.41,0-6.28,2.95-7.22,7"/><path class="cls-7" d="M66,18.62a6.79,6.79,0,0,1,5.38-3c3.4,0,6.28,2.95,7.21,7"/></g></g></g></svg>